<svg xmlns="http://www.w3.org/2000/svg" viewBox="15 72.30000000000001 1583.6999999999998 136.79999999999998"><path fill="#ffbf4c" d="M133.80 171.30L204.30 77.70Q208.80 72.30 215.40 72.30L215.40 72.30Q221.40 72.30 225.60 76.50Q229.80 80.70 229.80 86.70L229.80 86.70Q229.80 92.10 226.80 95.40L226.80 95.40L226.50 95.70L153.90 193.50Q148.50 200.40 140.25 204.75Q132 209.10 122.40 209.10L122.40 209.10Q113.40 209.10 105.45 205.20Q97.50 201.30 92.10 194.40L92.10 194.40L19.20 96.90Q17.40 94.80 16.20 92.25Q15 89.70 15 86.70L15 86.70Q15 80.70 19.20 76.50Q23.40 72.30 29.40 72.30L29.40 72.30Q36.60 72.30 40.80 78L40.80 78L110.70 171.30Q112.80 173.70 115.95 176.55Q119.10 179.40 122.40 179.40L122.40 179.40Q125.70 179.40 128.85 176.55Q132 173.70 133.80 171.30L133.80 171.30ZM259.80 86.70L259.80 86.70Q259.80 80.70 264 76.50Q268.20 72.30 274.20 72.30L274.20 72.30L486.90 72.30Q492.90 72.30 497.10 76.50Q501.30 80.70 501.30 86.70L501.30 86.70Q501.30 92.70 497.10 96.90Q492.90 101.10 486.90 101.10L486.90 101.10L274.20 101.10Q268.20 101.10 264 96.90Q259.80 92.70 259.80 86.70ZM486.90 203.10L296.40 203.10Q289.80 203.10 283.20 200.25Q276.60 197.40 271.50 192.30Q266.40 187.20 263.10 180Q259.80 172.80 259.80 163.80L259.80 163.80L259.80 136.80Q259.80 128.70 264.45 126Q269.10 123.30 279 123.30L279 123.30L480.30 123.30Q486.30 123.30 490.50 127.50Q494.70 131.70 494.70 137.70L494.70 137.70Q494.70 143.70 490.50 147.90Q486.30 152.10 480.30 152.10L480.30 152.10L288.60 152.10L288.60 166.80Q288.60 169.80 291.15 172.05Q293.70 174.30 297.90 174.30L297.90 174.30L486.90 174.30Q492.90 174.30 497.10 178.50Q501.30 182.70 501.30 188.70L501.30 188.70Q501.30 194.70 497.10 198.90Q492.90 203.10 486.90 203.10L486.90 203.10ZM724.20 152.10L724.20 152.10Q732.30 157.20 740.70 163.05Q749.10 168.90 757.80 175.80L757.80 175.80Q761.10 178.20 763.50 181.35Q765.90 184.50 765.90 188.70L765.90 188.70Q765.90 194.70 761.70 198.90Q757.50 203.10 751.50 203.10L751.50 203.10Q746.40 203.10 741.30 198.90L741.30 198.90Q729 189.90 716.10 181.50Q703.20 173.10 689.25 166.50Q675.30 159.90 660.30 156Q645.30 152.10 629.10 152.10L629.10 152.10L569.40 152.10Q565.50 152.70 562.80 155.70Q560.10 158.70 560.10 163.20L560.10 163.20L560.10 188.70Q560.10 194.70 555.75 198.90Q551.40 203.10 545.70 203.10L545.70 203.10Q539.70 203.10 535.50 198.90Q531.30 194.70 531.30 188.70L531.30 188.70L531.30 159.90Q531.30 152.40 534.15 145.65Q537 138.90 541.80 133.95Q546.60 129 553.20 126.15Q559.80 123.30 567.60 123.30L567.60 123.30L726.60 123.30Q731.10 123.30 734.55 120.15Q738 117 738 112.20L738 112.20Q738 107.70 734.55 104.40Q731.10 101.10 726.60 101.10L726.60 101.10L545.70 101.10Q539.70 101.10 535.50 96.90Q531.30 92.70 531.30 86.70L531.30 86.70Q531.30 80.70 535.50 76.50Q539.70 72.30 545.70 72.30L545.70 72.30L725.40 72.30Q733.80 72.30 741.15 75.45Q748.50 78.60 754.05 84Q759.60 89.40 762.75 96.60Q765.90 103.80 765.90 112.20L765.90 112.20Q765.90 120.60 762.75 127.80Q759.60 135 754.05 140.40Q748.50 145.80 741.15 148.95Q733.80 152.10 725.40 152.10L725.40 152.10L724.20 152.10ZM835.80 152.10L835.80 152.10Q827.40 152.10 820.20 148.95Q813.00 145.80 807.60 140.40Q802.20 135 799.05 127.80Q795.90 120.60 795.90 112.20L795.90 112.20Q795.90 103.80 799.05 96.60Q802.20 89.40 807.60 84Q813.00 78.60 820.20 75.45Q827.40 72.30 835.80 72.30L835.80 72.30L1017.90 72.30Q1023.90 72.30 1028.10 76.50Q1032.30 80.70 1032.30 86.70L1032.30 86.70Q1032.30 92.70 1028.10 96.90Q1023.90 101.10 1017.90 101.10L1017.90 101.10L835.20 101.10Q830.70 101.10 827.25 104.25Q823.80 107.40 823.80 112.20L823.80 112.20Q823.80 116.70 827.25 120Q830.70 123.30 835.20 123.30L835.20 123.30L1001.10 123.30Q1009.50 123.30 1016.85 126.45Q1024.20 129.60 1029.60 135Q1035.00 140.40 1038.15 147.75Q1041.30 155.10 1041.30 163.50L1041.30 163.50Q1041.30 171.90 1038.15 179.10Q1035.00 186.30 1029.60 191.70Q1024.20 197.10 1016.85 200.10Q1009.50 203.10 1001.10 203.10L1001.10 203.10L819.30 203.10Q813.30 203.10 809.10 198.90Q804.90 194.70 804.90 188.70L804.90 188.70Q804.90 182.70 809.10 178.50Q813.30 174.30 819.30 174.30L819.30 174.30L1002.30 174.30Q1006.80 174.30 1010.10 171.15Q1013.40 168 1013.40 163.50L1013.40 163.50Q1013.40 158.70 1010.10 155.40Q1006.80 152.10 1002.30 152.10L1002.30 152.10L835.80 152.10ZM1100.10 137.70L1100.10 137.70Q1100.10 143.10 1101.45 149.55Q1102.80 156 1106.55 161.40Q1110.30 166.80 1116.75 170.55Q1123.20 174.30 1133.70 174.30L1133.70 174.30L1253.10 174.30Q1263.30 174.30 1269.90 170.55Q1276.50 166.80 1280.25 161.40Q1284.00 156 1285.35 149.55Q1286.70 143.10 1286.70 137.70L1286.70 137.70L1286.70 87Q1286.70 81 1290.90 76.80Q1295.10 72.60 1301.10 72.60L1301.10 72.60Q1307.10 72.60 1311.30 76.80Q1315.50 81 1315.50 87L1315.50 87L1315.50 137.70Q1315.50 149.10 1311.75 160.65Q1308.00 172.20 1300.80 181.65Q1293.60 191.10 1283.40 197.10Q1273.20 203.10 1260.30 203.10L1260.30 203.10L1123.50 203.10Q1111.20 202.50 1101.60 196.35Q1092.00 190.20 1085.25 180.90Q1078.50 171.60 1074.90 160.20Q1071.30 148.80 1071.30 137.70L1071.30 137.70L1071.30 87Q1071.30 81 1075.50 76.80Q1079.70 72.60 1085.70 72.60L1085.70 72.60Q1091.70 72.60 1095.90 76.80Q1100.10 81 1100.10 87L1100.10 87L1100.10 137.70ZM1598.70 101.10L1598.70 188.70Q1598.70 194.70 1594.50 198.90Q1590.30 203.10 1584.30 203.10L1584.30 203.10Q1578.30 203.10 1574.10 198.90Q1569.90 194.70 1569.90 188.70L1569.90 188.70L1569.90 123.30Q1569.90 111 1568.40 111L1568.40 111Q1567.20 111 1560.00 119.10L1560.00 119.10L1494.00 194.10Q1490.10 198.60 1484.40 200.85Q1478.70 203.10 1472.10 203.10L1472.10 203.10Q1465.50 203.10 1459.80 200.85Q1454.10 198.60 1450.20 194.10L1450.20 194.10L1384.20 119.10Q1377.30 111 1375.80 111L1375.80 111Q1374.30 111 1374.30 123.30L1374.30 123.30L1374.30 188.70Q1374.30 194.70 1370.10 198.90Q1365.90 203.10 1359.90 203.10L1359.90 203.10Q1353.90 203.10 1349.70 198.90Q1345.50 194.70 1345.50 188.70L1345.50 188.70L1345.50 101.10Q1345.50 89.10 1352.40 80.70Q1359.30 72.30 1371.30 72.30L1371.30 72.30Q1378.50 72.30 1384.20 75.90Q1389.90 79.50 1394.70 84.60L1394.70 84.60L1463.70 163.20Q1465.20 164.70 1467.45 166.35Q1469.70 168 1472.10 168L1472.10 168Q1474.50 168 1476.75 166.35Q1479.00 164.70 1480.50 163.20L1480.50 163.20L1549.20 84.60L1549.50 84.60Q1553.70 78.90 1559.70 75.60Q1565.70 72.30 1572.90 72.30L1572.90 72.30Q1584.90 72.30 1591.80 80.70Q1598.70 89.10 1598.70 101.10L1598.70 101.10Z"/></svg>