<svg xmlns="http://www.w3.org/2000/svg" viewBox="15 72.30000000000001 1313.3999999999999 130.79999999999998"><path d="M54.90 152.10L54.90 152.10Q46.50 152.10 39.30 148.95Q32.10 145.80 26.70 140.40Q21.30 135 18.15 127.80Q15 120.60 15 112.20L15 112.20Q15 103.80 18.15 96.60Q21.30 89.40 26.70 84Q32.10 78.60 39.30 75.45Q46.50 72.30 54.90 72.30L54.90 72.30L237 72.30Q243 72.30 247.20 76.50Q251.40 80.70 251.40 86.70L251.40 86.70Q251.40 92.70 247.20 96.90Q243 101.10 237 101.10L237 101.10L54.30 101.10Q49.80 101.10 46.35 104.25Q42.90 107.40 42.90 112.20L42.90 112.20Q42.90 116.70 46.35 120Q49.80 123.30 54.30 123.30L54.30 123.30L220.20 123.30Q228.60 123.30 235.95 126.45Q243.30 129.60 248.70 135Q254.10 140.40 257.25 147.75Q260.40 155.10 260.40 163.50L260.40 163.50Q260.40 171.90 257.25 179.10Q254.10 186.30 248.70 191.70Q243.30 197.10 235.95 200.10Q228.60 203.10 220.20 203.10L220.20 203.10L38.40 203.10Q32.40 203.10 28.20 198.90Q24 194.70 24 188.70L24 188.70Q24 182.70 28.20 178.50Q32.40 174.30 38.40 174.30L38.40 174.30L221.40 174.30Q225.90 174.30 229.20 171.15Q232.50 168 232.50 163.50L232.50 163.50Q232.50 158.70 229.20 155.40Q225.90 152.10 221.40 152.10L221.40 152.10L54.90 152.10ZM304.80 72.30L511.20 72.30Q517.20 72.30 521.40 76.50Q525.60 80.70 525.60 86.70L525.60 86.70Q525.60 92.40 521.70 96.45Q517.80 100.50 512.40 101.10L512.40 101.10L452.10 101.10Q443.10 101.70 437.25 105.45Q431.40 109.20 428.10 114.60Q424.80 120 423.60 126.30Q422.40 132.60 422.40 137.70L422.40 137.70L422.40 188.70Q422.40 194.70 418.20 198.90Q414 203.10 408 203.10L408 203.10Q402 203.10 397.80 198.90Q393.60 194.70 393.60 188.70L393.60 188.70L393.60 137.70Q393.60 128.40 396 118.95Q398.40 109.50 403.20 101.10L403.20 101.10L304.80 101.10Q298.80 101.10 294.60 96.90Q290.40 92.70 290.40 86.70L290.40 86.70Q290.40 80.70 294.60 76.50Q298.80 72.30 304.80 72.30L304.80 72.30ZM730.80 174.30L730.80 174.30Q741.00 174.30 747.60 170.55Q754.20 166.80 757.95 161.40Q761.70 156 763.05 149.55Q764.40 143.10 764.40 137.70L764.40 137.70Q764.40 132.30 763.05 125.85Q761.70 119.40 757.95 114Q754.20 108.60 747.60 104.85Q741.00 101.10 730.80 101.10L730.80 101.10L609.60 101.10Q599.10 101.10 592.65 104.85Q586.20 108.60 582.45 114Q578.70 119.40 577.35 125.85Q576.00 132.30 576.00 137.70L576.00 137.70Q576.00 143.10 577.35 149.55Q578.70 156 582.45 161.40Q586.20 166.80 592.65 170.55Q599.10 174.30 609.60 174.30L609.60 174.30L730.80 174.30ZM792.30 137.70L792.30 137.70Q792.30 149.10 788.55 160.65Q784.80 172.20 777.60 181.65Q770.40 191.10 760.20 197.10Q750.00 203.10 737.10 203.10L737.10 203.10L600.30 203.10Q588.00 202.50 578.40 196.35Q568.80 190.20 562.05 180.90Q555.30 171.60 551.70 160.20Q548.10 148.80 548.10 137.70L548.10 137.70Q548.10 126.30 551.85 114.75Q555.60 103.20 562.80 93.75Q570.00 84.30 580.20 78.30Q590.40 72.30 603.30 72.30L603.30 72.30L740.10 72.30Q752.40 72.90 762.00 79.05Q771.60 85.20 778.35 94.50Q785.10 103.80 788.70 115.20Q792.30 126.60 792.30 137.70ZM1056.90 188.70L1056.90 188.70Q1056.90 194.70 1052.70 198.90Q1048.50 203.10 1042.50 203.10L1042.50 203.10Q1039.50 203.10 1037.10 201.90Q1034.70 200.70 1032.60 198.90L1032.60 198.90Q1030.80 197.10 1029.90 195.90L1029.90 195.90Q1017.60 180.60 1004.55 171.90Q991.50 163.20 977.10 158.70Q962.70 154.20 946.65 153.15Q930.60 152.10 912.30 152.10L912.30 152.10L851.10 152.10L851.10 188.70Q851.10 194.70 846.75 198.90Q842.40 203.10 836.70 203.10L836.70 203.10Q830.70 203.10 826.50 198.90Q822.30 194.70 822.30 188.70L822.30 188.70L822.30 111.60Q822.30 102.60 825.60 95.40Q828.90 88.20 834 83.10Q839.10 78 845.70 75.15Q852.30 72.30 858.90 72.30L858.90 72.30L1015.50 72.30Q1023.90 72.30 1031.40 75.45Q1038.90 78.60 1044.60 84Q1050.30 89.40 1053.60 96.60Q1056.90 103.80 1056.90 112.20L1056.90 112.20Q1056.90 118.20 1052.70 122.40Q1048.50 126.60 1042.50 126.60L1042.50 126.60Q1036.50 126.60 1032.30 122.40Q1028.10 118.20 1028.10 112.20L1028.10 112.20Q1028.10 107.70 1024.95 104.70Q1021.80 101.70 1017.60 101.10L1017.60 101.10L860.40 101.10Q856.50 101.10 854.10 103.05Q851.70 105 851.10 107.70L851.10 107.70L851.10 123.30L912.30 123.30Q938.70 123.30 960 126.30Q981.30 129.30 998.55 136.05Q1015.80 142.80 1029.45 153.75Q1043.10 164.70 1053.90 180.60L1053.90 180.60Q1056.90 184.50 1056.90 188.70ZM1301.40 123.30L1301.40 123.30Q1307.40 123.30 1311.60 127.50Q1315.80 131.70 1315.80 137.70L1315.80 137.70Q1315.80 143.70 1311.60 147.90Q1307.40 152.10 1301.40 152.10L1301.40 152.10L1152.00 152.10Q1146.00 152.10 1141.80 147.90Q1137.60 143.70 1137.60 137.70L1137.60 137.70Q1137.60 131.70 1141.80 127.50Q1146.00 123.30 1152.00 123.30L1152.00 123.30L1301.40 123.30ZM1314.00 101.10L1148.70 101.10Q1138.20 101.10 1131.75 104.85Q1125.30 108.60 1121.55 114Q1117.80 119.40 1116.45 125.85Q1115.10 132.30 1115.10 137.70L1115.10 137.70Q1115.10 143.10 1116.45 149.55Q1117.80 156 1121.55 161.40Q1125.30 166.80 1131.75 170.55Q1138.20 174.30 1148.70 174.30L1148.70 174.30L1314.00 174.30Q1320.00 174.30 1324.20 178.50Q1328.40 182.70 1328.40 188.70L1328.40 188.70Q1328.40 194.70 1324.20 198.90Q1320.00 203.10 1314.00 203.10L1314.00 203.10L1139.10 203.10Q1126.80 203.10 1117.20 197.10Q1107.60 191.10 1100.85 181.65Q1094.10 172.20 1090.50 160.50Q1086.90 148.80 1086.90 137.70L1086.90 137.70Q1086.90 126.30 1090.65 114.75Q1094.40 103.20 1101.60 93.75Q1108.80 84.30 1119.00 78.30Q1129.20 72.30 1142.10 72.30L1142.10 72.30L1314.00 72.30Q1320.00 72.30 1324.20 76.50Q1328.40 80.70 1328.40 86.70L1328.40 86.70Q1328.40 92.70 1324.20 96.90Q1320.00 101.10 1314.00 101.10L1314.00 101.10Z"/></svg>