<svg xmlns="http://www.w3.org/2000/svg" viewBox="15 72.30000000000001 1311 130.79999999999998"><path fill="#ffbf4c" d="M197.70 174.30L197.70 174.30Q207.90 174.30 214.50 170.55Q221.10 166.80 224.85 161.40Q228.60 156 229.95 149.55Q231.30 143.10 231.30 137.70L231.30 137.70Q231.30 132.30 229.95 125.85Q228.60 119.40 224.85 114Q221.10 108.60 214.50 104.85Q207.90 101.10 197.70 101.10L197.70 101.10L76.50 101.10Q66 101.10 59.55 104.85Q53.10 108.60 49.35 114Q45.60 119.40 44.25 125.85Q42.90 132.30 42.90 137.70L42.90 137.70Q42.90 143.10 44.25 149.55Q45.60 156 49.35 161.40Q53.10 166.80 59.55 170.55Q66 174.30 76.50 174.30L76.50 174.30L197.70 174.30ZM259.20 137.70L259.20 137.70Q259.20 149.10 255.45 160.65Q251.70 172.20 244.50 181.65Q237.30 191.10 227.10 197.10Q216.90 203.10 204 203.10L204 203.10L67.20 203.10Q54.90 202.50 45.30 196.35Q35.70 190.20 28.95 180.90Q22.20 171.60 18.60 160.20Q15 148.80 15 137.70L15 137.70Q15 126.30 18.75 114.75Q22.50 103.20 29.70 93.75Q36.90 84.30 47.10 78.30Q57.30 72.30 70.20 72.30L70.20 72.30L207 72.30Q219.30 72.90 228.90 79.05Q238.50 85.20 245.25 94.50Q252 103.80 255.60 115.20Q259.20 126.60 259.20 137.70ZM327.30 174.30L484.50 174.30Q489 174.30 492.45 171Q495.90 167.70 495.90 163.20L495.90 163.20Q495.90 158.40 492.45 155.25Q489 152.10 484.50 152.10L484.50 152.10L318 152.10L318 166.80Q318 169.80 320.55 172.05Q323.10 174.30 327.30 174.30L327.30 174.30ZM289.20 86.70L289.20 86.70Q289.20 80.70 293.40 76.50Q297.60 72.30 303.60 72.30L303.60 72.30L483.30 72.30Q491.70 72.30 499.05 75.45Q506.40 78.60 511.95 84Q517.50 89.40 520.65 96.75Q523.80 104.10 523.80 112.50L523.80 112.50Q523.80 120 521.25 126.45Q518.70 132.90 514.50 138L514.50 138Q518.70 143.10 521.25 149.55Q523.80 156 523.80 163.20L523.80 163.20Q523.80 171.60 520.65 178.80Q517.50 186 511.95 191.40Q506.40 196.80 499.05 199.95Q491.70 203.10 483.30 203.10L483.30 203.10L325.80 203.10Q319.20 203.10 312.60 200.25Q306 197.40 300.90 192.30Q295.80 187.20 292.50 180Q289.20 172.80 289.20 163.80L289.20 163.80L289.20 136.80Q289.20 128.70 293.85 126Q298.50 123.30 308.40 123.30L308.40 123.30L484.80 123.30Q489.30 123.30 492.60 120.30Q495.90 117.30 495.90 112.50L495.90 112.50Q495.90 108 492.45 104.55Q489 101.10 484.50 101.10L484.50 101.10L303.60 101.10Q297.60 101.10 293.40 96.90Q289.20 92.70 289.20 86.70ZM582.60 152.70L582.60 152.70Q582.60 156.90 585 160.65Q587.40 164.40 591.45 167.55Q595.50 170.70 601.05 172.50Q606.60 174.30 612.90 174.30L612.90 174.30L733.80 174.30Q743.70 174.30 750.15 171Q756.60 167.70 760.35 162.60Q764.10 157.50 765.75 151.50Q767.40 145.50 767.40 140.10L767.40 140.10L767.40 86.70Q767.40 80.70 771.75 76.50Q776.10 72.30 781.80 72.30L781.80 72.30Q787.80 72.30 792 76.50Q796.20 80.70 796.20 86.70L796.20 86.70L796.20 137.70Q796.20 149.10 792.30 160.65Q788.40 172.20 781.05 181.65Q773.70 191.10 763.20 197.10Q752.70 203.10 739.80 203.10L739.80 203.10L604.20 203.10Q594 203.10 584.85 198.90Q575.70 194.70 568.80 187.65Q561.90 180.60 557.85 171.45Q553.80 162.30 553.80 152.70L553.80 152.70Q553.80 146.70 558.15 142.50Q562.50 138.30 568.20 138.30L568.20 138.30Q574.20 138.30 578.40 142.50Q582.60 146.70 582.60 152.70ZM854.70 86.70L854.70 123.30L924.00 123.30Q939.60 123.30 954.60 119.25Q969.60 115.20 983.85 108.60Q998.10 102 1011.15 93.60Q1024.20 85.20 1036.20 76.50L1036.20 76.50Q1041.30 72.30 1046.40 72.30L1046.40 72.30Q1052.40 72.30 1056.60 76.50Q1060.80 80.70 1060.80 86.70L1060.80 86.70Q1060.80 90.90 1058.40 94.05Q1056 97.20 1052.70 99.60L1052.70 99.60Q1044.90 105.60 1037.70 110.85Q1030.50 116.10 1023.30 120.60Q1016.10 125.10 1008.45 129.30Q1000.80 133.50 992.10 137.70L992.10 137.70Q1000.80 141.90 1008.45 146.10Q1016.10 150.30 1023.30 154.80Q1030.50 159.30 1037.70 164.55Q1044.90 169.80 1052.70 175.80L1052.70 175.80Q1056 178.20 1058.40 181.35Q1060.80 184.50 1060.80 188.70L1060.80 188.70Q1060.80 194.70 1056.60 198.90Q1052.40 203.10 1046.40 203.10L1046.40 203.10Q1041.30 203.10 1036.20 198.90L1036.20 198.90Q1023.90 189.90 1010.85 181.50Q997.80 173.10 983.70 166.50Q969.60 159.90 954.60 156Q939.60 152.10 924.00 152.10L924.00 152.10L854.70 152.10L854.70 188.70Q854.70 194.70 850.50 198.90Q846.30 203.10 840.60 203.10L840.60 203.10Q834.60 203.10 830.40 198.90Q826.20 194.70 826.20 188.70L826.20 188.70L826.20 86.70Q826.20 80.70 830.40 76.50Q834.60 72.30 840.30 72.30L840.30 72.30Q846.30 72.30 850.50 76.50Q854.70 80.70 854.70 86.70L854.70 86.70ZM1311.60 72.30L1311.60 72.30Q1317.60 72.30 1321.80 76.50Q1326 80.70 1326 86.70L1326 86.70Q1326 92.70 1321.80 96.90Q1317.60 101.10 1311.60 101.10L1311.60 101.10L1222.80 101.10L1222.80 188.70Q1222.80 194.70 1218.60 198.90Q1214.40 203.10 1208.40 203.10L1208.40 203.10Q1202.40 203.10 1198.20 198.90Q1194 194.70 1194 188.70L1194 188.70L1194 101.10L1104 101.10Q1098.60 100.50 1094.70 96.45Q1090.80 92.40 1090.80 86.70L1090.80 86.70Q1090.80 80.70 1095 76.50Q1099.20 72.30 1105.20 72.30L1105.20 72.30L1311.60 72.30Z"/></svg>