<svg xmlns="http://www.w3.org/2000/svg" viewBox="15 66.30000000000001 1603.4999999999998 136.79999999999998"><path d="M249.60 188.70L249.60 188.70Q249.60 194.70 245.40 198.90Q241.20 203.10 235.20 203.10L235.20 203.10Q232.20 203.10 229.80 201.90Q227.40 200.70 225.30 198.90L225.30 198.90Q223.50 197.10 222.60 195.90L222.60 195.90Q210.30 180.60 197.25 171.90Q184.20 163.20 169.80 158.70Q155.40 154.20 139.35 153.15Q123.30 152.10 105 152.10L105 152.10L43.80 152.10L43.80 188.70Q43.80 194.70 39.45 198.90Q35.10 203.10 29.40 203.10L29.40 203.10Q23.40 203.10 19.20 198.90Q15 194.70 15 188.70L15 188.70L15 111.60Q15 102.60 18.30 95.40Q21.60 88.20 26.70 83.10Q31.80 78 38.40 75.15Q45 72.30 51.60 72.30L51.60 72.30L208.20 72.30Q216.60 72.30 224.10 75.45Q231.60 78.60 237.30 84Q243 89.40 246.30 96.60Q249.60 103.80 249.60 112.20L249.60 112.20Q249.60 118.20 245.40 122.40Q241.20 126.60 235.20 126.60L235.20 126.60Q229.20 126.60 225 122.40Q220.80 118.20 220.80 112.20L220.80 112.20Q220.80 107.70 217.65 104.70Q214.50 101.70 210.30 101.10L210.30 101.10L53.10 101.10Q49.20 101.10 46.80 103.05Q44.40 105 43.80 107.70L43.80 107.70L43.80 123.30L105 123.30Q131.40 123.30 152.70 126.30Q174 129.30 191.25 136.05Q208.50 142.80 222.15 153.75Q235.80 164.70 246.60 180.60L246.60 180.60Q249.60 184.50 249.60 188.70ZM368.40 170.70L368.40 170.70Q368.40 162.90 373.80 157.50Q379.20 152.10 387.00 152.10L387.00 152.10Q394.80 152.10 400.20 157.50Q405.60 162.90 405.60 170.70L405.60 170.70Q405.60 178.50 400.20 183.90Q394.80 189.30 387.00 189.30L387.00 189.30Q379.20 189.30 373.80 183.90Q368.40 178.50 368.40 170.70ZM375.60 104.10L305.10 197.70Q300.60 203.10 294.00 203.10L294.00 203.10Q288.00 203.10 283.80 198.90Q279.60 194.70 279.60 188.70L279.60 188.70Q279.60 183.30 282.60 180L282.60 180L355.50 81.90Q360.60 75 369.00 70.65Q377.40 66.30 387.00 66.30L387.00 66.30Q396 66.30 404.10 70.20Q412.20 74.10 417.30 81L417.30 81L490.20 178.50Q492 180.60 493.20 183.15Q494.40 185.70 494.40 188.70L494.40 188.70Q494.40 194.70 490.20 198.90Q486 203.10 480 203.10L480 203.10Q472.80 203.10 468.60 197.40L468.60 197.40L398.70 104.10Q396.60 101.70 393.45 98.85Q390.30 96 387.00 96L387.00 96Q383.70 96 380.55 98.85Q377.40 101.70 375.60 104.10L375.60 104.10ZM759 188.70L759 188.70Q759 194.70 754.80 198.90Q750.60 203.10 744.60 203.10L744.60 203.10Q741.60 203.10 739.20 201.90Q736.80 200.70 734.70 198.90L734.70 198.90Q732.90 197.10 732 195.90L732 195.90Q719.70 180.60 706.65 171.90Q693.60 163.20 679.20 158.70Q664.80 154.20 648.75 153.15Q632.70 152.10 614.40 152.10L614.40 152.10L553.20 152.10L553.20 188.70Q553.20 194.70 548.85 198.90Q544.50 203.10 538.80 203.10L538.80 203.10Q532.80 203.10 528.60 198.90Q524.40 194.70 524.40 188.70L524.40 188.70L524.40 111.60Q524.40 102.60 527.70 95.40Q531 88.20 536.10 83.10Q541.20 78 547.80 75.15Q554.40 72.30 561 72.30L561 72.30L717.60 72.30Q726 72.30 733.50 75.45Q741 78.60 746.70 84Q752.40 89.40 755.70 96.60Q759 103.80 759 112.20L759 112.20Q759 118.20 754.80 122.40Q750.60 126.60 744.60 126.60L744.60 126.60Q738.60 126.60 734.40 122.40Q730.20 118.20 730.20 112.20L730.20 112.20Q730.20 107.70 727.05 104.70Q723.90 101.70 719.70 101.10L719.70 101.10L562.50 101.10Q558.60 101.10 556.20 103.05Q553.80 105 553.20 107.70L553.20 107.70L553.20 123.30L614.40 123.30Q640.80 123.30 662.10 126.30Q683.40 129.30 700.65 136.05Q717.90 142.80 731.55 153.75Q745.20 164.70 756 180.60L756 180.60Q759 184.50 759 188.70ZM817.80 188.70L817.80 188.70Q817.80 194.70 813.60 198.90Q809.40 203.10 803.40 203.10L803.40 203.10Q797.40 203.10 793.20 198.90Q789 194.70 789 188.70L789 188.70L789 86.70Q789 80.70 793.20 76.50Q797.40 72.30 803.40 72.30L803.40 72.30Q809.40 72.30 813.60 76.50Q817.80 80.70 817.80 86.70L817.80 86.70L817.80 188.70ZM876.60 152.10L876.60 174.30L1043.10 174.30Q1047.60 174.30 1051.05 171Q1054.50 167.70 1054.50 163.20L1054.50 163.20Q1054.50 158.40 1051.05 155.25Q1047.60 152.10 1043.10 152.10L1043.10 152.10L876.60 152.10ZM1043.10 101.10L876.60 101.10L876.60 123.30L1043.40 123.30Q1047.90 123.30 1051.20 120.30Q1054.50 117.30 1054.50 112.50L1054.50 112.50Q1054.50 108 1051.05 104.55Q1047.60 101.10 1043.10 101.10L1043.10 101.10ZM862.20 203.10L862.20 203.10Q856.20 203.10 852 198.90Q847.80 194.70 847.80 188.70L847.80 188.70L847.80 86.70Q847.80 80.70 852 76.50Q856.20 72.30 862.20 72.30L862.20 72.30L1041.90 72.30Q1050.30 72.30 1057.65 75.45Q1065 78.60 1070.55 84Q1076.10 89.40 1079.25 96.75Q1082.40 104.10 1082.40 112.50L1082.40 112.50Q1082.40 120 1079.85 126.45Q1077.30 132.90 1073.10 138L1073.10 138Q1077.30 143.10 1079.85 149.55Q1082.40 156 1082.40 163.20L1082.40 163.20Q1082.40 171.60 1079.25 178.80Q1076.10 186 1070.55 191.40Q1065 196.80 1057.65 199.95Q1050.30 203.10 1041.90 203.10L1041.90 203.10L862.20 203.10ZM1153.50 203.10L1153.50 203.10Q1145.10 203.10 1137.60 199.95Q1130.10 196.80 1124.55 191.40Q1119.00 186 1115.70 178.80Q1112.40 171.60 1112.40 163.20L1112.40 163.20L1112.40 86.70Q1112.40 80.70 1116.60 76.50Q1120.80 72.30 1126.80 72.30L1126.80 72.30Q1132.50 72.30 1136.85 76.50Q1141.20 80.70 1141.20 86.70L1141.20 86.70L1141.20 163.20Q1141.20 167.70 1144.65 171Q1148.10 174.30 1152.60 174.30L1152.60 174.30L1332.60 174.30Q1338.60 174.30 1342.80 178.50Q1347.00 182.70 1347.00 188.70L1347.00 188.70Q1347.00 194.70 1342.80 198.90Q1338.60 203.10 1332.60 203.10L1332.60 203.10L1153.50 203.10ZM1591.50 123.30L1591.50 123.30Q1597.50 123.30 1601.70 127.50Q1605.90 131.70 1605.90 137.70L1605.90 137.70Q1605.90 143.70 1601.70 147.90Q1597.50 152.10 1591.50 152.10L1591.50 152.10L1442.10 152.10Q1436.10 152.10 1431.90 147.90Q1427.70 143.70 1427.70 137.70L1427.70 137.70Q1427.70 131.70 1431.90 127.50Q1436.10 123.30 1442.10 123.30L1442.10 123.30L1591.50 123.30ZM1604.10 101.10L1438.80 101.10Q1428.30 101.10 1421.85 104.85Q1415.40 108.60 1411.65 114Q1407.90 119.40 1406.55 125.85Q1405.20 132.30 1405.20 137.70L1405.20 137.70Q1405.20 143.10 1406.55 149.55Q1407.90 156 1411.65 161.40Q1415.40 166.80 1421.85 170.55Q1428.30 174.30 1438.80 174.30L1438.80 174.30L1604.10 174.30Q1610.10 174.30 1614.30 178.50Q1618.50 182.70 1618.50 188.70L1618.50 188.70Q1618.50 194.70 1614.30 198.90Q1610.10 203.10 1604.10 203.10L1604.10 203.10L1429.20 203.10Q1416.90 203.10 1407.30 197.10Q1397.70 191.10 1390.95 181.65Q1384.20 172.20 1380.60 160.50Q1377.00 148.80 1377.00 137.70L1377.00 137.70Q1377.00 126.30 1380.75 114.75Q1384.50 103.20 1391.70 93.75Q1398.90 84.30 1409.10 78.30Q1419.30 72.30 1432.20 72.30L1432.20 72.30L1604.10 72.30Q1610.10 72.30 1614.30 76.50Q1618.50 80.70 1618.50 86.70L1618.50 86.70Q1618.50 92.70 1614.30 96.90Q1610.10 101.10 1604.10 101.10L1604.10 101.10Z"/></svg>