<svg xmlns="http://www.w3.org/2000/svg" viewBox="15 66.30000000000001 1603.4999999999998 136.79999999999998"><path fill="#ffbf4c" d="M207.90 152.10L207.90 152.10Q216 157.20 224.40 163.05Q232.80 168.90 241.50 175.80L241.50 175.80Q244.80 178.20 247.20 181.35Q249.60 184.50 249.60 188.70L249.60 188.70Q249.60 194.70 245.40 198.90Q241.20 203.10 235.20 203.10L235.20 203.10Q230.10 203.10 225 198.90L225 198.90Q212.70 189.90 199.80 181.50Q186.90 173.10 172.95 166.50Q159 159.90 144 156Q129 152.10 112.80 152.10L112.80 152.10L53.10 152.10Q49.20 152.70 46.50 155.70Q43.80 158.70 43.80 163.20L43.80 163.20L43.80 188.70Q43.80 194.70 39.45 198.90Q35.10 203.10 29.40 203.10L29.40 203.10Q23.40 203.10 19.20 198.90Q15 194.70 15 188.70L15 188.70L15 159.90Q15 152.40 17.85 145.65Q20.70 138.90 25.50 133.95Q30.30 129 36.90 126.15Q43.50 123.30 51.30 123.30L51.30 123.30L210.30 123.30Q214.80 123.30 218.25 120.15Q221.70 117 221.70 112.20L221.70 112.20Q221.70 107.70 218.25 104.40Q214.80 101.10 210.30 101.10L210.30 101.10L29.40 101.10Q23.40 101.10 19.20 96.90Q15 92.70 15 86.70L15 86.70Q15 80.70 19.20 76.50Q23.40 72.30 29.40 72.30L29.40 72.30L209.10 72.30Q217.50 72.30 224.85 75.45Q232.20 78.60 237.75 84Q243.30 89.40 246.45 96.60Q249.60 103.80 249.60 112.20L249.60 112.20Q249.60 120.60 246.45 127.80Q243.30 135 237.75 140.40Q232.20 145.80 224.85 148.95Q217.50 152.10 209.10 152.10L209.10 152.10L207.90 152.10ZM375.60 104.10L305.10 197.70Q300.60 203.10 294.00 203.10L294.00 203.10Q288.00 203.10 283.80 198.90Q279.60 194.70 279.60 188.70L279.60 188.70Q279.60 183.30 282.60 180L282.60 180L355.50 81.90Q360.60 75 369.00 70.65Q377.40 66.30 387.00 66.30L387.00 66.30Q396 66.30 404.10 70.20Q412.20 74.10 417.30 81L417.30 81L490.20 178.50Q492 180.60 493.20 183.15Q494.40 185.70 494.40 188.70L494.40 188.70Q494.40 194.70 490.20 198.90Q486 203.10 480 203.10L480 203.10Q472.80 203.10 468.60 197.40L468.60 197.40L398.70 104.10Q396.60 101.70 393.45 98.85Q390.30 96 387.00 96L387.00 96Q383.70 96 380.55 98.85Q377.40 101.70 375.60 104.10L375.60 104.10ZM717.30 152.10L717.30 152.10Q725.40 157.20 733.80 163.05Q742.20 168.90 750.90 175.80L750.90 175.80Q754.20 178.20 756.60 181.35Q759 184.50 759 188.70L759 188.70Q759 194.70 754.80 198.90Q750.60 203.10 744.60 203.10L744.60 203.10Q739.50 203.10 734.40 198.90L734.40 198.90Q722.10 189.90 709.20 181.50Q696.30 173.10 682.35 166.50Q668.40 159.90 653.40 156Q638.40 152.10 622.20 152.10L622.20 152.10L562.50 152.10Q558.60 152.70 555.90 155.70Q553.20 158.70 553.20 163.20L553.20 163.20L553.20 188.70Q553.20 194.70 548.85 198.90Q544.50 203.10 538.80 203.10L538.80 203.10Q532.80 203.10 528.60 198.90Q524.40 194.70 524.40 188.70L524.40 188.70L524.40 159.90Q524.40 152.40 527.25 145.65Q530.10 138.90 534.90 133.95Q539.70 129 546.30 126.15Q552.90 123.30 560.70 123.30L560.70 123.30L719.70 123.30Q724.20 123.30 727.65 120.15Q731.10 117 731.10 112.20L731.10 112.20Q731.10 107.70 727.65 104.40Q724.20 101.10 719.70 101.10L719.70 101.10L538.80 101.10Q532.80 101.10 528.60 96.90Q524.40 92.70 524.40 86.70L524.40 86.70Q524.40 80.70 528.60 76.50Q532.80 72.30 538.80 72.30L538.80 72.30L718.50 72.30Q726.90 72.30 734.25 75.45Q741.60 78.60 747.15 84Q752.70 89.40 755.85 96.60Q759 103.80 759 112.20L759 112.20Q759 120.60 755.85 127.80Q752.70 135 747.15 140.40Q741.60 145.80 734.25 148.95Q726.90 152.10 718.50 152.10L718.50 152.10L717.30 152.10ZM817.80 188.70L817.80 188.70Q817.80 194.70 813.60 198.90Q809.40 203.10 803.40 203.10L803.40 203.10Q797.40 203.10 793.20 198.90Q789 194.70 789 188.70L789 188.70L789 86.70Q789 80.70 793.20 76.50Q797.40 72.30 803.40 72.30L803.40 72.30Q809.40 72.30 813.60 76.50Q817.80 80.70 817.80 86.70L817.80 86.70L817.80 188.70ZM885.90 174.30L1043.10 174.30Q1047.60 174.30 1051.05 171Q1054.50 167.70 1054.50 163.20L1054.50 163.20Q1054.50 158.40 1051.05 155.25Q1047.60 152.10 1043.10 152.10L1043.10 152.10L876.60 152.10L876.60 166.80Q876.60 169.80 879.15 172.05Q881.70 174.30 885.90 174.30L885.90 174.30ZM847.80 86.70L847.80 86.70Q847.80 80.70 852 76.50Q856.20 72.30 862.20 72.30L862.20 72.30L1041.90 72.30Q1050.30 72.30 1057.65 75.45Q1065 78.60 1070.55 84Q1076.10 89.40 1079.25 96.75Q1082.40 104.10 1082.40 112.50L1082.40 112.50Q1082.40 120 1079.85 126.45Q1077.30 132.90 1073.10 138L1073.10 138Q1077.30 143.10 1079.85 149.55Q1082.40 156 1082.40 163.20L1082.40 163.20Q1082.40 171.60 1079.25 178.80Q1076.10 186 1070.55 191.40Q1065 196.80 1057.65 199.95Q1050.30 203.10 1041.90 203.10L1041.90 203.10L884.40 203.10Q877.80 203.10 871.20 200.25Q864.60 197.40 859.50 192.30Q854.40 187.20 851.10 180Q847.80 172.80 847.80 163.80L847.80 163.80L847.80 136.80Q847.80 128.70 852.45 126Q857.10 123.30 867 123.30L867 123.30L1043.40 123.30Q1047.90 123.30 1051.20 120.30Q1054.50 117.30 1054.50 112.50L1054.50 112.50Q1054.50 108 1051.05 104.55Q1047.60 101.10 1043.10 101.10L1043.10 101.10L862.20 101.10Q856.20 101.10 852 96.90Q847.80 92.70 847.80 86.70ZM1153.50 203.10L1153.50 203.10Q1145.10 203.10 1137.60 199.95Q1130.10 196.80 1124.55 191.40Q1119.00 186 1115.70 178.80Q1112.40 171.60 1112.40 163.20L1112.40 163.20L1112.40 86.70Q1112.40 80.70 1116.60 76.50Q1120.80 72.30 1126.80 72.30L1126.80 72.30Q1132.50 72.30 1136.85 76.50Q1141.20 80.70 1141.20 86.70L1141.20 86.70L1141.20 163.20Q1141.20 167.70 1144.65 171Q1148.10 174.30 1152.60 174.30L1152.60 174.30L1332.60 174.30Q1338.60 174.30 1342.80 178.50Q1347.00 182.70 1347.00 188.70L1347.00 188.70Q1347.00 194.70 1342.80 198.90Q1338.60 203.10 1332.60 203.10L1332.60 203.10L1153.50 203.10ZM1377.00 86.70L1377.00 86.70Q1377.00 80.70 1381.20 76.50Q1385.40 72.30 1391.40 72.30L1391.40 72.30L1604.10 72.30Q1610.10 72.30 1614.30 76.50Q1618.50 80.70 1618.50 86.70L1618.50 86.70Q1618.50 92.70 1614.30 96.90Q1610.10 101.10 1604.10 101.10L1604.10 101.10L1391.40 101.10Q1385.40 101.10 1381.20 96.90Q1377.00 92.70 1377.00 86.70ZM1604.10 203.10L1413.60 203.10Q1407.00 203.10 1400.40 200.25Q1393.80 197.40 1388.70 192.30Q1383.60 187.20 1380.30 180Q1377.00 172.80 1377.00 163.80L1377.00 163.80L1377.00 136.80Q1377.00 128.70 1381.65 126Q1386.30 123.30 1396.20 123.30L1396.20 123.30L1597.50 123.30Q1603.50 123.30 1607.70 127.50Q1611.90 131.70 1611.90 137.70L1611.90 137.70Q1611.90 143.70 1607.70 147.90Q1603.50 152.10 1597.50 152.10L1597.50 152.10L1405.80 152.10L1405.80 166.80Q1405.80 169.80 1408.35 172.05Q1410.90 174.30 1415.10 174.30L1415.10 174.30L1604.10 174.30Q1610.10 174.30 1614.30 178.50Q1618.50 182.70 1618.50 188.70L1618.50 188.70Q1618.50 194.70 1614.30 198.90Q1610.10 203.10 1604.10 203.10L1604.10 203.10Z"/></svg>