<svg xmlns="http://www.w3.org/2000/svg" viewBox="15 66.30000000000001 1632.8999999999996 141"><path d="M123.30 188.70L123.30 188.70Q123.30 180.90 128.70 175.50Q134.10 170.10 141.90 170.10L141.90 170.10Q149.70 170.10 155.10 175.50Q160.50 180.90 160.50 188.70L160.50 188.70Q160.50 196.50 155.10 201.90Q149.70 207.30 141.90 207.30L141.90 207.30Q134.10 207.30 128.70 201.90Q123.30 196.50 123.30 188.70ZM43.80 188.70L43.80 188.70Q43.80 194.70 39.60 198.90Q35.40 203.10 29.40 203.10L29.40 203.10Q23.40 203.10 19.20 198.90Q15 194.70 15 188.70L15 188.70L15 86.70Q15 80.70 19.20 76.50Q23.40 72.30 29.40 72.30L29.40 72.30Q32.40 72.30 34.80 73.50Q37.20 74.70 39.60 76.50L39.60 76.50Q58.80 93.30 72.75 102.90Q86.70 112.50 98.25 117.30Q109.80 122.10 120 123.30Q130.20 124.50 141.90 124.50L141.90 124.50Q153.60 124.50 163.65 123.45Q173.70 122.40 184.95 117.60Q196.20 112.80 210.15 103.20Q224.10 93.60 243.60 76.50L243.60 76.50Q248.70 72.30 253.80 72.30L253.80 72.30Q259.80 72.30 264 76.50Q268.20 80.70 268.20 86.70L268.20 86.70L268.20 188.70Q268.20 194.70 264 198.90Q259.80 203.10 253.80 203.10L253.80 203.10Q247.80 203.10 243.60 198.90Q239.40 194.70 239.40 188.70L239.40 188.70L239.40 117.60Q225.90 128.40 213.45 135.60Q201 142.80 189.15 147.15Q177.30 151.50 165.60 153.30Q153.90 155.10 141.90 155.10L141.90 155.10Q129 155.10 117.15 153.30Q105.30 151.50 93.45 147.15Q81.60 142.80 69.45 135.60Q57.30 128.40 43.80 117.60L43.80 117.60L43.80 188.70ZM387 170.70L387 170.70Q387 162.90 392.40 157.50Q397.80 152.10 405.60 152.10L405.60 152.10Q413.40 152.10 418.80 157.50Q424.20 162.90 424.20 170.70L424.20 170.70Q424.20 178.50 418.80 183.90Q413.40 189.30 405.60 189.30L405.60 189.30Q397.80 189.30 392.40 183.90Q387 178.50 387 170.70ZM394.20 104.10L323.70 197.70Q319.20 203.10 312.60 203.10L312.60 203.10Q306.60 203.10 302.40 198.90Q298.20 194.70 298.20 188.70L298.20 188.70Q298.20 183.30 301.20 180L301.20 180L374.10 81.90Q379.20 75 387.60 70.65Q396 66.30 405.60 66.30L405.60 66.30Q414.60 66.30 422.70 70.20Q430.80 74.10 435.90 81L435.90 81L508.80 178.50Q510.60 180.60 511.80 183.15Q513 185.70 513 188.70L513 188.70Q513 194.70 508.80 198.90Q504.60 203.10 498.60 203.10L498.60 203.10Q491.40 203.10 487.20 197.40L487.20 197.40L417.30 104.10Q415.20 101.70 412.05 98.85Q408.90 96 405.60 96L405.60 96Q402.30 96 399.15 98.85Q396 101.70 394.20 104.10L394.20 104.10ZM571.50 86.70L571.50 123.30L640.80 123.30Q656.40 123.30 671.40 119.25Q686.40 115.20 700.65 108.60Q714.90 102 727.95 93.60Q741 85.20 753 76.50L753 76.50Q758.10 72.30 763.20 72.30L763.20 72.30Q769.20 72.30 773.40 76.50Q777.60 80.70 777.60 86.70L777.60 86.70Q777.60 90.90 775.20 94.05Q772.80 97.20 769.50 99.60L769.50 99.60Q761.70 105.60 754.50 110.85Q747.30 116.10 740.10 120.60Q732.90 125.10 725.25 129.30Q717.60 133.50 708.90 137.70L708.90 137.70Q717.60 141.90 725.25 146.10Q732.90 150.30 740.10 154.80Q747.30 159.30 754.50 164.55Q761.70 169.80 769.50 175.80L769.50 175.80Q772.80 178.20 775.20 181.35Q777.60 184.50 777.60 188.70L777.60 188.70Q777.60 194.70 773.40 198.90Q769.20 203.10 763.20 203.10L763.20 203.10Q758.10 203.10 753 198.90L753 198.90Q740.70 189.90 727.65 181.50Q714.60 173.10 700.50 166.50Q686.40 159.90 671.40 156Q656.40 152.10 640.80 152.10L640.80 152.10L571.50 152.10L571.50 188.70Q571.50 194.70 567.30 198.90Q563.10 203.10 557.40 203.10L557.40 203.10Q551.40 203.10 547.20 198.90Q543 194.70 543 188.70L543 188.70L543 86.70Q543 80.70 547.20 76.50Q551.40 72.30 557.10 72.30L557.10 72.30Q563.10 72.30 567.30 76.50Q571.50 80.70 571.50 86.70L571.50 86.70ZM1022.10 123.30L1022.10 123.30Q1028.10 123.30 1032.30 127.50Q1036.50 131.70 1036.50 137.70L1036.50 137.70Q1036.50 143.70 1032.30 147.90Q1028.10 152.10 1022.10 152.10L1022.10 152.10L872.70 152.10Q866.70 152.10 862.50 147.90Q858.30 143.70 858.30 137.70L858.30 137.70Q858.30 131.70 862.50 127.50Q866.70 123.30 872.70 123.30L872.70 123.30L1022.10 123.30ZM1034.70 101.10L869.40 101.10Q858.90 101.10 852.45 104.85Q846.00 108.60 842.25 114Q838.50 119.40 837.15 125.85Q835.80 132.30 835.80 137.70L835.80 137.70Q835.80 143.10 837.15 149.55Q838.50 156 842.25 161.40Q846.00 166.80 852.45 170.55Q858.90 174.30 869.40 174.30L869.40 174.30L1034.70 174.30Q1040.70 174.30 1044.90 178.50Q1049.10 182.70 1049.10 188.70L1049.10 188.70Q1049.10 194.70 1044.90 198.90Q1040.70 203.10 1034.70 203.10L1034.70 203.10L859.80 203.10Q847.50 203.10 837.90 197.10Q828.30 191.10 821.55 181.65Q814.80 172.20 811.20 160.50Q807.60 148.80 807.60 137.70L807.60 137.70Q807.60 126.30 811.35 114.75Q815.10 103.20 822.30 93.75Q829.50 84.30 839.70 78.30Q849.90 72.30 862.80 72.30L862.80 72.30L1034.70 72.30Q1040.70 72.30 1044.90 76.50Q1049.10 80.70 1049.10 86.70L1049.10 86.70Q1049.10 92.70 1044.90 96.90Q1040.70 101.10 1034.70 101.10L1034.70 101.10ZM1313.70 188.70L1313.70 188.70Q1313.70 194.70 1309.50 198.90Q1305.30 203.10 1299.30 203.10L1299.30 203.10Q1296.30 203.10 1293.90 201.90Q1291.50 200.70 1289.40 198.90L1289.40 198.90Q1287.60 197.10 1286.70 195.90L1286.70 195.90Q1274.40 180.60 1261.35 171.90Q1248.30 163.20 1233.90 158.70Q1219.50 154.20 1203.45 153.15Q1187.40 152.10 1169.10 152.10L1169.10 152.10L1107.90 152.10L1107.90 188.70Q1107.90 194.70 1103.55 198.90Q1099.20 203.10 1093.50 203.10L1093.50 203.10Q1087.50 203.10 1083.30 198.90Q1079.10 194.70 1079.10 188.70L1079.10 188.70L1079.10 111.60Q1079.10 102.60 1082.40 95.40Q1085.70 88.20 1090.80 83.10Q1095.90 78 1102.50 75.15Q1109.10 72.30 1115.70 72.30L1115.70 72.30L1272.30 72.30Q1280.70 72.30 1288.20 75.45Q1295.70 78.60 1301.40 84Q1307.10 89.40 1310.40 96.60Q1313.70 103.80 1313.70 112.20L1313.70 112.20Q1313.70 118.20 1309.50 122.40Q1305.30 126.60 1299.30 126.60L1299.30 126.60Q1293.30 126.60 1289.10 122.40Q1284.90 118.20 1284.90 112.20L1284.90 112.20Q1284.90 107.70 1281.75 104.70Q1278.60 101.70 1274.40 101.10L1274.40 101.10L1117.20 101.10Q1113.30 101.10 1110.90 103.05Q1108.50 105 1107.90 107.70L1107.90 107.70L1107.90 123.30L1169.10 123.30Q1195.50 123.30 1216.80 126.30Q1238.10 129.30 1255.35 136.05Q1272.60 142.80 1286.25 153.75Q1299.90 164.70 1310.70 180.60L1310.70 180.60Q1313.70 184.50 1313.70 188.70ZM1372.50 108.90L1372.50 108.90Q1372.50 114.90 1368.30 119.10Q1364.10 123.30 1358.10 123.30L1358.10 123.30Q1352.10 123.30 1347.90 119.10Q1343.70 114.90 1343.70 108.90L1343.70 108.90L1343.70 86.70Q1343.70 80.70 1347.90 76.50Q1352.10 72.30 1358.10 72.30L1358.10 72.30Q1364.10 72.30 1368.30 76.50Q1372.50 80.70 1372.50 86.70L1372.50 86.70L1372.50 108.90ZM1442.40 152.10L1442.40 152.10Q1434.00 152.10 1426.80 148.95Q1419.60 145.80 1414.20 140.40Q1408.80 135 1405.65 127.80Q1402.50 120.60 1402.50 112.20L1402.50 112.20Q1402.50 103.80 1405.65 96.60Q1408.80 89.40 1414.20 84Q1419.60 78.60 1426.80 75.45Q1434.00 72.30 1442.40 72.30L1442.40 72.30L1624.50 72.30Q1630.50 72.30 1634.70 76.50Q1638.90 80.70 1638.90 86.70L1638.90 86.70Q1638.90 92.70 1634.70 96.90Q1630.50 101.10 1624.50 101.10L1624.50 101.10L1441.80 101.10Q1437.30 101.10 1433.85 104.25Q1430.40 107.40 1430.40 112.20L1430.40 112.20Q1430.40 116.70 1433.85 120Q1437.30 123.30 1441.80 123.30L1441.80 123.30L1607.70 123.30Q1616.10 123.30 1623.45 126.45Q1630.80 129.60 1636.20 135Q1641.60 140.40 1644.75 147.75Q1647.90 155.10 1647.90 163.50L1647.90 163.50Q1647.90 171.90 1644.75 179.10Q1641.60 186.30 1636.20 191.70Q1630.80 197.10 1623.45 200.10Q1616.10 203.10 1607.70 203.10L1607.70 203.10L1425.90 203.10Q1419.90 203.10 1415.70 198.90Q1411.50 194.70 1411.50 188.70L1411.50 188.70Q1411.50 182.70 1415.70 178.50Q1419.90 174.30 1425.90 174.30L1425.90 174.30L1608.90 174.30Q1613.40 174.30 1616.70 171.15Q1620.00 168 1620.00 163.50L1620.00 163.50Q1620.00 158.70 1616.70 155.40Q1613.40 152.10 1608.90 152.10L1608.90 152.10L1442.40 152.10Z"/></svg>