<?xml version="1.0" encoding="UTF-8"?>
<svg id="Layer_2" data-name="Layer 2" xmlns="http://www.w3.org/2000/svg" viewBox="0 0 418.27 141.31">
  <defs>
    <style>
      .cls-1 {
        fill: #ffbf4c;
      }
    </style>
  </defs>
  <g id="Layer_2-2" data-name="Layer 2">
    <g id="Layer_1_copy_2" data-name="Layer 1 copy 2">
      <rect class="cls-1" x="230.03" y="68.76" width="66.6" height="7" rx="1.87" ry="1.87"/>
      <rect class="cls-1" x="122.43" y="68.76" width="66.6" height="7" rx="1.87" ry="1.87"/>
      <path class="cls-1" d="m414.26,132.1c-36-20.55-73.19-41.77-97.69-122.68-.36-1.2.54-2.42,1.8-2.42h98.01c1.03,0,1.87-.84,1.87-1.87V1.87c0-1.03-.84-1.87-1.87-1.87h-107.33c-1.24,0-2.14,1.19-1.8,2.38l.58,2.07c25.23,89.35,66.53,112.92,102.97,133.72,1.55.89,3.1,1.77,4.64,2.65h.02c1.25.73,2.81-.18,2.81-1.62v-3.75c0-.67-.36-1.29-.94-1.62-.89-.51-2.22-1.27-3.05-1.74h-.02Z"/>
      <path class="cls-1" d="m31.83,1.87v3.25c0,1.03.84,1.87,1.87,1.87h67.96c1.25,0,2.16,1.21,1.8,2.41C79.41,89.82,41.06,110.81,7.13,129.38c-2.08,1.14-4.14,2.27-6.17,3.39-.6.33-.96.96-.96,1.64v3.72c0,1.43,1.54,2.33,2.79,1.63h0c2.53-1.41,5.1-2.82,7.7-4.25,33.79-18.49,75.75-41.47,100.58-127.16.23-.8.96-1.36,1.8-1.36h32.5c1.03,0,1.87-.84,1.87-1.87V1.87c0-1.03-.84-1.87-1.87-1.87H33.7c-1.03,0-1.87.84-1.87,1.87Z"/>
    </g>
    <path class="cls-1" d="m211.74,141.31h-4.25c-.76,0-1.38-.61-1.38-1.36V1.51c0-.75.62-1.36,1.38-1.36h4.25c.76,0,1.38.61,1.38,1.36v138.45c0,.75-.62,1.36-1.38,1.36Z"/>
  </g>
</svg>