<svg xmlns="http://www.w3.org/2000/svg" xmlns:xlink="http://www.w3.org/1999/xlink" viewBox="0,0,256,256" width="96px" height="96px" fill-rule="nonzero"><g fill="#ffbf4c" fill-rule="nonzero" stroke="none" stroke-width="1" stroke-linecap="butt" stroke-linejoin="miter" stroke-miterlimit="10" stroke-dasharray="" stroke-dashoffset="0" font-family="none" font-weight="none" font-size="none" text-anchor="none" style="mix-blend-mode: normal"><g transform="scale(10.66667,10.66667)"><path d="M7,3c-2.197,0 -4,1.803 -4,4v10c0,2.197 1.803,4 4,4h10c2.197,0 4,-1.803 4,-4v-10c0,-2.197 -1.803,-4 -4,-4zM7,5h10c1.117,0 2,0.883 2,2v10c0,1.117 -0.883,2 -2,2h-10c-1.117,0 -2,-0.883 -2,-2v-10c0,-1.117 0.883,-2 2,-2z"></path><path d="M21,7v10c0,2.2 -1.8,4 -4,4h-10c-2.2,0 -4,-1.8 -4,-4v-10c0,-2.2 1.8,-4 4,-4h10c2.2,0 4,1.8 4,4z" opacity="0.3"></path><path d="M15.757,6.311c0.632,-0.158 1.243,0.319 1.243,0.97v7.719h-0.01c0.01,0.04 0.01,0.08 0.01,0.12c0,1.04 -1.12,1.88 -2.5,1.88c-1.38,0 -2.5,-0.96 -2.5,-2c0,-1.03 1,-2 2,-2c0.17,0 1,0 1,0v-3.5l-4,1v5.5h-0.01c0.01,0.04 0.01,0.08 0.01,0.12c0,1.04 -1.12,1.88 -2.5,1.88c-1.38,0 -2.5,-0.96 -2.5,-2c0,-1.03 1,-2 2,-2c0.17,0 1,0 1,0c0,-1 0,-5.219 0,-5.219c0,-0.459 0.312,-0.859 0.757,-0.97z"></path></g></g></svg>